<svg width="130" height="11" viewBox="0 0 130 11" fill="none" xmlns="http://www.w3.org/2000/svg">
    <path d="M4.06659 4.42547C3.40491 4.42547 3.08785 4.21852 3.08785 3.67728C3.08785 3.13603 3.40491 2.94501 4.06659 2.94501H10.4629L12.2963 0.175108H4.28715C1.48878 0.175108 0.330841 1.48046 0.330841 3.48625C0.330841 5.31693 1.41986 6.54269 3.79089 6.54269H8.80865C9.48411 6.54269 9.78738 6.76556 9.78738 7.3068C9.78738 7.86396 9.48411 8.08683 8.80865 8.08683H1.83341L0 10.8249H8.58809C11.4002 10.8249 12.5444 9.51954 12.5444 7.33864C12.5444 5.39653 11.3313 4.42547 9.08435 4.42547H4.06659Z" fill="#4D85CF"/>
    <path d="M18.7048 1.13025C18.374 0.429811 17.8777 0 17.1471 0C16.4303 0 15.7824 0.477569 15.5342 1.46454L13.1494 10.8249H15.9478L16.8162 7.11577C17.092 5.92185 17.2987 5.03039 17.4366 4.18669C17.7261 4.90304 18.0569 5.65123 18.7324 7.11577L19.973 9.80608C20.4555 10.8567 20.9242 11 21.6134 11C22.3027 11 22.7714 10.8567 23.2539 9.80608L24.4945 7.13169C25.1286 5.74674 25.4733 4.93488 25.7765 4.18669C25.9282 5.04631 26.1212 5.90593 26.4106 7.11577L27.2791 10.8249H30.1188L27.7891 1.46454C27.541 0.477569 26.9069 0 26.1901 0C25.4457 0 24.9494 0.44573 24.6186 1.13025L23.1436 4.15485C22.3303 5.7945 21.9719 6.57453 21.6686 7.32272C21.3515 6.57453 20.9931 5.77858 20.1798 4.13893L18.7048 1.13025Z" fill="#4D85CF"/>
    <path d="M45.7895 10.8249L40.0274 1.19392C39.6276 0.525325 39.0624 0 38.2077 0C37.3117 0 36.7465 0.573082 36.3605 1.19392L30.4468 10.8249H33.8241L38.1526 3.75687L39.8068 6.57453C40.1101 7.08394 40.4961 7.73661 40.7442 8.11867C40.3031 8.08683 39.6552 8.08683 39.1038 8.08683H36.7879L35.0647 10.8249H45.7895Z" fill="#4D85CF"/>
    <path d="M58.1928 8.75543C57.5587 8.00724 57.2141 7.62518 56.897 7.35456C58.4134 7.00434 59.3094 5.63531 59.3094 3.97974C59.3094 0.939218 56.6627 0.175108 54.5674 0.175108H48.6398L46.7788 2.94501H54.8017C55.7804 2.94501 56.3732 3.3589 56.3732 4.18669C56.3732 4.91896 55.6839 5.38061 54.8017 5.38061H46.7788V10.8249H49.6323V8.00724H54.016L56.0699 10.8249H59.8884L58.1928 8.75543Z" fill="#4D85CF"/>
    <path d="M61.8933 0.175108L60.0461 2.94501H64.3746V10.8249H67.2281V2.94501H70.5227L72.3699 0.175108H61.8933Z" fill="#4D85CF"/>
    <path d="M77.1923 8.08683C75.6346 8.08683 74.4904 7.0521 74.4904 5.5398C74.4904 4.01158 75.6484 2.94501 77.1923 2.94501H81.8241L83.6575 0.175108H77.1923C73.9942 0.175108 71.6369 2.27641 71.6369 5.39653C71.6369 8.48481 73.9942 10.8249 77.1923 10.8249H81.8241L83.6575 8.08683H77.1923Z" fill="#4D85CF"/>
    <path d="M87.5428 0.175108H84.6893V10.8249H87.5428V0.175108Z" fill="#4D85CF"/>
    <path d="M90.298 0.175108L88.4508 2.94501H92.7793V10.8249H95.6328V2.94501H98.9274L100.775 0.175108H90.298Z" fill="#4D85CF"/>
    <path d="M104.532 0.175108H101.678V10.8249H104.532V0.175108Z" fill="#4D85CF"/>
    <path d="M109.176 8.08683V6.63821H114.841L116.482 4.21852H109.176V2.94501H115.144L116.992 0.175108H106.308V10.8249H115.186L117.019 8.08683H109.176Z" fill="#4D85CF"/>
    <path d="M121.522 4.42547C120.861 4.42547 120.543 4.21852 120.543 3.67728C120.543 3.13603 120.861 2.94501 121.522 2.94501H127.918L129.752 0.175108H121.743C118.944 0.175108 117.786 1.48046 117.786 3.48625C117.786 5.31693 118.875 6.54269 121.246 6.54269H126.264C126.94 6.54269 127.243 6.76556 127.243 7.3068C127.243 7.86396 126.94 8.08683 126.264 8.08683H119.289L117.456 10.8249H126.044C128.856 10.8249 130 9.51954 130 7.33864C130 5.39653 128.787 4.42547 126.54 4.42547H121.522Z" fill="#4D85CF"/>
</svg>
