<?xml version="1.0" encoding="UTF-8"?><svg xmlns="http://www.w3.org/2000/svg" viewBox="0 0 10.43 15"><g id="a"/><g id="b"><g id="c"><g><path d="M10.42,9.33c-.02-.66-.09-1.31-.22-1.96-.03-.14-.06-.26-.21-.29-.15-.04-.25,.05-.33,.15-.31,.38-.68,.7-1.07,.98-.04,.03-.08,.08-.15,.07,0-.05,0-.1,0-.14,.13-1.02,.1-2.03-.09-3.03-.22-1.18-.66-2.28-1.34-3.27-.48-.7-1.05-1.32-1.72-1.83h-.16c-.13,.08-.19,.2-.19,.35,0,.23-.03,.45-.07,.68-.19,1.34-.68,2.57-1.43,3.69-.07,.1-.1,.11-.18,0-.29-.39-.64-.7-1.05-.95-.28-.23-.48-.17-.56,.18-.15,.63-.37,1.23-.61,1.82C.57,6.88,.1,7.98,.02,9.21c-.05,.75,0,1.48,.23,2.19,.41,1.24,1.18,2.21,2.31,2.88,.75,.45,1.56,.71,2.44,.71,.03,0,.05,0,.08,0,1.21,.02,2.29-.33,3.24-1.07,.88-.68,1.48-1.54,1.84-2.59,.22-.65,.29-1.32,.27-2.01Zm-1.99,2.02c-.04,1.22-.59,2.16-1.66,2.78-.57,.33-1.19,.45-1.84,.39-1.42-.13-2.5-1.16-2.83-2.49-.2-.82-.05-1.6,.27-2.36,.21-.51,.52-.97,.75-1.47,.08-.18,.17-.36,.24-.55,.05-.12,.12-.15,.23-.1,.24,.11,.46,.26,.64,.46,.09,.1,.14,.08,.22,0,.6-.72,.99-1.54,1.22-2.44,.02-.08,.02-.17,.12-.19,.1-.01,.14,.07,.18,.14,.49,.83,.81,1.74,1,2.69,.1,.52,.16,1.04,.13,1.52,0,.25,0,.45,0,.65,0,.11,.02,.13,.13,.08,.29-.14,.54-.34,.73-.6,.05-.08,.1-.17,.21-.15,.11,.02,.09,.13,.12,.21,.12,.47,.16,.95,.15,1.42Z" style="fill:#4d85cf;"/><path d="M7.11,9.73c0,.25,0,.45,0,.65,0,.11,.02,.13,.13,.08,.29-.14,.54-.34,.73-.6,.05-.08,.1-.17,.21-.15,.11,.02,.09,.13,.12,.21,.12,.47,.16,.95,.15,1.42-.04,1.22-.59,2.16-1.66,2.78-.57,.33-1.19,.45-1.84,.39-1.42-.13-2.5-1.16-2.83-2.49-.2-.82-.05-1.6,.27-2.36,.21-.51,.52-.97,.75-1.47,.08-.18,.17-.36,.24-.55,.05-.12,.12-.15,.23-.1,.24,.11,.46,.26,.64,.46,.09,.1,.14,.08,.22,0,.59-.72,.99-1.54,1.22-2.44,.02-.08,.02-.17,.12-.19,.1-.01,.14,.07,.18,.14,.49,.83,.81,1.74,1,2.69,.1,.52,.16,1.04,.13,1.52Zm-.19,2.71c.02-.16-.03-.34-.11-.52-.1-.23-.24-.44-.38-.64-.41-.57-.85-1.12-1.12-1.78-.06-.15-.17-.16-.28-.04-.54,.62-1.03,1.28-1.33,2.06-.22,.57-.29,1.14,.02,1.72,.36,.67,1.15,1.04,1.89,.86,.76-.19,1.3-.86,1.31-1.66Z" style="fill:#b1cbe8;"/><path d="M6.92,12.44c0,.8-.54,1.47-1.31,1.66-.74,.18-1.53-.19-1.89-.86-.31-.57-.24-1.15-.02-1.72,.3-.78,.79-1.44,1.33-2.06,.1-.12,.21-.11,.28,.04,.27,.66,.71,1.21,1.12,1.78,.14,.2,.28,.41,.38,.64,.08,.18,.13,.36,.11,.52Z" style="fill:#fefefe;"/></g></g></g></svg>