<svg width="17" height="17" viewBox="0 0 17 17" fill="none" xmlns="http://www.w3.org/2000/svg">
    <path d="M8.00201 3.49779e-07C7.34446 3.21036e-07 6.71132 0.0830081 6.10585 0.222982C5.84869 0.284831 5.65663 0.501302 5.62733 0.764974L5.49387 1.97428C5.45155 2.36979 5.22206 2.72135 4.87701 2.91992C4.53196 3.12012 4.11366 3.14128 3.74908 2.98177L2.63743 2.49186C2.39491 2.38607 2.11008 2.44466 1.92942 2.63672C1.06516 3.55794 0.402725 4.67285 0.0267478 5.91634C-0.0497497 6.17025 0.0413962 6.44531 0.254612 6.60156L1.24094 7.32422C1.56321 7.56185 1.75201 7.93457 1.75201 8.33333C1.75201 8.7321 1.56321 9.10482 1.24094 9.34082L0.254612 10.0635C0.041396 10.2197 -0.0497499 10.4948 0.0267476 10.7487C0.402724 11.9922 1.06516 13.1087 1.92942 14.0283C2.11171 14.222 2.39491 14.2806 2.63742 14.1732L3.74908 13.6833C4.11366 13.5238 4.53196 13.5465 4.87701 13.7451C5.22206 13.9453 5.45155 14.2969 5.49387 14.6924L5.62733 15.9017C5.65663 16.1654 5.84869 16.3818 6.10585 16.4421C6.71132 16.5837 7.34446 16.6667 8.00201 16.6667C8.65956 16.6667 9.2927 16.5837 9.89817 16.4421C10.1553 16.3818 10.3474 16.1654 10.3767 15.9017L10.5101 14.6924C10.5525 14.2969 10.782 13.9453 11.127 13.7451C11.4721 13.5466 11.8904 13.5238 12.2549 13.6833L13.3666 14.1732C13.6091 14.2806 13.8923 14.222 14.0746 14.0283C14.9389 13.1087 15.6013 11.9922 15.9773 10.7487C16.0538 10.4948 15.9626 10.2197 15.7494 10.0635L14.7631 9.34082C14.4408 9.10482 14.252 8.7321 14.252 8.33333C14.252 7.93457 14.4408 7.56185 14.7631 7.32422L15.7494 6.60319C15.9626 6.44694 16.0538 6.17188 15.9773 5.91797C15.6013 4.67448 14.9389 3.55794 14.0746 2.63672C13.8923 2.44466 13.6091 2.38607 13.3666 2.49349L12.2549 2.98177C11.8904 3.1429 11.4721 3.12012 11.127 2.91992C10.782 2.72135 10.5525 2.36979 10.5101 1.97428L10.3767 0.764975C10.3474 0.501303 10.1553 0.284831 9.89817 0.22461C9.2927 0.0830083 8.65956 3.78521e-07 8.00201 3.49779e-07ZM8.00201 1.25C8.40728 1.25 8.79791 1.32324 9.18853 1.3916L9.26666 2.10938C9.35292 2.90202 9.81353 3.60514 10.502 4.00228C11.1905 4.40104 12.0303 4.44661 12.7595 4.12598L13.4187 3.83626C13.9265 4.44499 14.3285 5.13346 14.6101 5.88704L14.0241 6.31673C13.3812 6.78874 13.002 7.53744 13.002 8.33333C13.002 9.12923 13.3812 9.87793 14.0241 10.3483L14.6101 10.778C14.3285 11.5332 13.9265 12.2217 13.4187 12.8304L12.7595 12.5391C12.0303 12.2201 11.1905 12.2656 10.502 12.6628C9.81353 13.0615 9.35292 13.7646 9.26666 14.5557L9.18853 15.2751C8.79791 15.3434 8.40728 15.4167 8.00201 15.4167C7.59673 15.4167 7.20611 15.3434 6.81548 15.2751L6.73736 14.5557C6.6511 13.7646 6.19048 13.0615 5.50201 12.6628C4.81353 12.2656 3.97369 12.2201 3.24615 12.5391L2.58534 12.8304C2.07753 12.2217 1.67551 11.5332 1.39556 10.778L1.9815 10.3483C2.62278 9.87793 3.00201 9.12923 3.00201 8.33333C3.00201 7.53743 2.62115 6.78711 1.9815 6.31673L1.39556 5.88704C1.67551 5.13346 2.07753 4.44499 2.58534 3.83464L3.24615 4.12598C3.97369 4.44661 4.81353 4.40104 5.50201 4.00391C6.19048 3.60514 6.6511 2.90202 6.73736 2.111L6.81548 1.3916C7.20611 1.32324 7.59673 1.25 8.00201 1.25ZM8.00201 5C6.1677 5 4.66867 6.49902 4.66867 8.33333C4.66867 10.1676 6.1677 11.6667 8.00201 11.6667C9.83632 11.6667 11.3353 10.1676 11.3353 8.33333C11.3353 6.49902 9.83632 5 8.00201 5ZM8.00201 6.25C9.15923 6.25 10.0853 7.17611 10.0853 8.33333C10.0853 9.49056 9.15923 10.4167 8.00201 10.4167C6.84478 10.4167 5.91867 9.49056 5.91867 8.33333C5.91867 7.17611 6.84478 6.25 8.00201 6.25Z" fill="#858585"/>
</svg>
